<?xml version="1.0" standalone="no"?>
<!DOCTYPE svg PUBLIC "-//W3C//DTD SVG 20010904//EN"
 "http://www.w3.org/TR/2001/REC-SVG-20010904/DTD/svg10.dtd">
<svg version="1.0" xmlns="http://www.w3.org/2000/svg"
 width="512.000000pt" height="512.000000pt" viewBox="0 0 512.000000 512.000000"
 preserveAspectRatio="xMidYMid meet">
<metadata>
Created by potrace 1.14, written by Peter Selinger 2001-2017
</metadata>
<g transform="translate(0.000000,512.000000) scale(0.100000,-0.100000)"
fill="#000000" stroke="none">
<path d="M3210 5109 c-309 -39 -624 -172 -870 -367 -85 -68 -245 -238 -312
-333 -74 -104 -160 -262 -207 -382 -33 -83 -86 -282 -96 -357 -6 -55 -16 -161
-19 -215 l-2 -40 -54 -2 c-262 -13 -547 -89 -740 -198 -34 -19 -64 -35 -67
-35 -8 0 -127 -82 -193 -134 -63 -49 -199 -180 -250 -241 -185 -221 -315 -498
-371 -785 -23 -121 -32 -386 -17 -515 61 -521 364 -989 818 -1261 47 -28 112
-63 145 -78 33 -15 68 -32 77 -37 43 -22 209 -73 313 -94 113 -24 181 -30 345
-30 142 0 200 4 285 20 44 8 99 18 105 20 3 1 25 7 50 14 226 60 478 192 655
341 253 214 449 515 538 827 46 161 57 231 70 442 3 38 -4 36 132 45 50 3 101
8 115 10 14 3 43 7 65 11 173 25 435 130 605 240 146 93 320 249 405 359 17
22 39 51 51 65 57 73 196 319 212 376 1 6 16 50 33 98 35 103 67 243 77 337 9
87 8 351 -1 423 -62 457 -301 866 -668 1142 -211 158 -432 258 -684 311 -11 2
-40 7 -65 10 -25 3 -49 8 -53 11 -15 9 -359 11 -427 2z"/>
</g>
</svg>
